<svg xmlns="http://www.w3.org/2000/svg" viewBox="0 0 512 512">
  <defs>
    <linearGradient id="g" x1="0" y1="0" x2="1" y2="1">
      <stop offset="0" stop-color="#F5A524"/>
      <stop offset="1" stop-color="#6366F1"/>
    </linearGradient>
    <radialGradient id="alone" cx="0.5" cy="0.42" r="0.55">
      <stop offset="0" stop-color="#FFD98A" stop-opacity="0.85"/>
      <stop offset="1" stop-color="#FFD98A" stop-opacity="0"/>
    </radialGradient>
  </defs>
  <rect width="512" height="512" fill="url(#g)"/>
  <circle cx="256" cy="262" r="195" fill="url(#alone)"/>
  <circle cx="256" cy="256" r="152" fill="#0F172A"/>
  <line x1="256.0" y1="144.0" x2="256.0" y2="124.0" stroke="#F8FAFC" stroke-width="10" stroke-linecap="round"/><line x1="312.0" y1="159.0" x2="322.0" y2="141.7" stroke="#F8FAFC" stroke-width="6" stroke-linecap="round"/><line x1="353.0" y1="200.0" x2="370.3" y2="190.0" stroke="#F8FAFC" stroke-width="6" stroke-linecap="round"/><line x1="368.0" y1="256.0" x2="388.0" y2="256.0" stroke="#F8FAFC" stroke-width="10" stroke-linecap="round"/><line x1="353.0" y1="312.0" x2="370.3" y2="322.0" stroke="#F8FAFC" stroke-width="6" stroke-linecap="round"/><line x1="312.0" y1="353.0" x2="322.0" y2="370.3" stroke="#F8FAFC" stroke-width="6" stroke-linecap="round"/><line x1="256.0" y1="368.0" x2="256.0" y2="388.0" stroke="#F8FAFC" stroke-width="10" stroke-linecap="round"/><line x1="200.0" y1="353.0" x2="190.0" y2="370.3" stroke="#F8FAFC" stroke-width="6" stroke-linecap="round"/><line x1="159.0" y1="312.0" x2="141.7" y2="322.0" stroke="#F8FAFC" stroke-width="6" stroke-linecap="round"/><line x1="144.0" y1="256.0" x2="124.0" y2="256.0" stroke="#F8FAFC" stroke-width="10" stroke-linecap="round"/><line x1="159.0" y1="200.0" x2="141.7" y2="190.0" stroke="#F8FAFC" stroke-width="6" stroke-linecap="round"/><line x1="200.0" y1="159.0" x2="190.0" y2="141.7" stroke="#F8FAFC" stroke-width="6" stroke-linecap="round"/>
  <line x1="256" y1="256" x2="191.7" y2="211.8" stroke="#F8FAFC" stroke-width="18" stroke-linecap="round"/>
  <line x1="256" y1="256" x2="345.0" y2="191.3" stroke="#F8FAFC" stroke-width="13" stroke-linecap="round"/>
  <line x1="278.7" y1="239.5" x2="160.5" y2="325.4" stroke="#F5A524" stroke-width="7" stroke-linecap="round"/>
  <circle cx="160.5" cy="325.4" r="16" fill="#F5A524"/>
  <circle cx="256" cy="256" r="9" fill="#F8FAFC"/>
</svg>